<svg version="1.1" id="Layer_1" xmlns="http://www.w3.org/2000/svg" xmlns:xlink="http://www.w3.org/1999/xlink" x="0px" y="0px"
	 width="100%" viewBox="0 0 1024 1024" enable-background="new 0 0 1024 1024" xml:space="preserve">
<path fill="#000000" opacity="1.000000" stroke="none" 
	d="
M573.274292,582.353882 
	C570.399536,587.255493 569.432556,592.271118 569.349915,597.508789 
	C569.313110,599.841797 569.378784,602.180298 569.242371,604.507141 
	C568.668518,614.291870 562.633118,620.194580 552.834229,620.288635 
	C540.335388,620.408569 527.834595,620.322205 515.334656,620.322571 
	C471.168152,620.323792 427.001617,620.328369 382.835114,620.322693 
	C366.203705,620.320557 359.653290,612.110535 363.019165,595.703003 
	C366.488953,578.789001 369.477234,561.778198 371.521149,544.637634 
	C375.117554,514.477966 368.791077,486.522308 352.722839,460.615448 
	C341.673645,442.800781 330.499420,425.026184 323.210327,405.141937 
	C315.268341,383.476685 311.240234,361.141998 311.858032,338.164490 
	C314.135498,253.459122 371.750458,187.041077 450.165222,169.667297 
	C495.257080,159.676605 539.428040,163.102966 581.257751,182.922775 
	C631.431824,206.696320 662.773010,246.052063 673.094910,301.158325 
	C674.775574,310.131042 675.315796,319.337036 675.161804,328.483276 
	C675.039307,335.763458 676.802246,342.384857 680.718018,348.361511 
	C690.302429,362.990448 700.134460,377.457062 709.730652,392.078491 
	C713.753540,398.207977 717.627502,404.531097 718.306335,412.074585 
	C719.802856,428.703857 709.912292,441.784912 693.309570,445.388641 
	C686.180054,446.936188 686.298340,446.922943 687.103821,454.134857 
	C687.841370,460.738800 686.937805,467.341919 683.585632,472.986816 
	C681.044617,477.265747 680.862000,481.449707 681.532715,485.841614 
	C682.479675,492.042877 681.568542,497.980499 678.517578,503.204163 
	C675.572998,508.245789 675.677917,513.049438 676.765503,518.429016 
	C678.422424,526.624329 678.710815,534.888672 676.378601,543.097168 
	C671.795715,559.227417 657.177551,571.061279 640.356445,572.416748 
	C624.543823,573.690857 608.716858,572.892212 592.898315,572.979065 
	C584.888306,573.023010 578.142151,575.156189 573.274292,582.353882 
M477.499969,599.736633 
	C499.332123,599.724304 521.164612,599.649780 542.996155,599.758423 
	C546.802734,599.777344 548.968323,599.011047 548.889099,594.606018 
	C548.836121,591.657532 549.487915,588.651855 550.139465,585.742371 
	C554.921387,564.385620 570.786865,551.770081 592.783142,551.744629 
	C607.782593,551.727295 622.782715,551.797119 637.781372,551.681335 
	C647.682678,551.604980 654.597839,545.371765 656.805603,535.846069 
	C658.260010,529.570740 657.474609,523.523193 656.044983,517.594910 
	C654.309021,510.396698 654.658081,503.891754 658.858765,497.588318 
	C661.855774,493.091034 662.314270,487.995636 661.159546,482.703613 
	C660.223145,478.412262 659.567871,473.756287 662.117432,470.057617 
	C667.494324,462.257416 666.806885,454.313904 664.660767,445.745636 
	C661.745605,434.107513 668.501770,425.912170 680.668091,425.677673 
	C684.179260,425.609985 687.668884,425.612518 691.038208,424.505341 
	C697.196106,422.481720 699.703430,416.867065 696.955566,410.941986 
	C695.910461,408.688507 694.525085,406.571014 693.122253,404.508881 
	C686.281799,394.453125 679.739075,384.168701 672.426514,374.465912 
	C659.329895,357.088287 651.747192,338.181366 653.588989,316.026031 
	C654.101074,309.866547 652.517029,303.763123 651.065247,297.817474 
	C639.166077,249.085678 608.807495,216.552750 562.739990,198.114975 
	C530.842468,185.348541 497.717529,183.109650 464.137817,188.632919 
	C434.502777,193.507370 407.261475,204.776047 385.029297,225.362030 
	C337.141754,269.703674 323.103455,324.210144 339.238922,386.779053 
	C345.626801,411.549683 358.675781,433.397919 371.890808,455.051544 
	C385.488342,477.331970 392.045776,501.654175 392.148529,527.672913 
	C392.211060,543.509949 389.447632,559.089783 386.866180,574.657227 
	C385.521301,582.767578 383.975586,590.844666 382.376984,599.735229 
	C414.279816,599.735229 445.389893,599.735229 477.499969,599.736633 
z"/>
<path fill="#000000" opacity="1.000000" stroke="none" 
	d="
M527.114502,719.651978 
	C535.573364,718.241821 540.519531,721.532104 545.122253,728.311157 
	C557.000427,745.805786 569.836060,762.650574 582.307617,779.741516 
	C583.051941,780.761536 583.957825,781.663635 584.946106,782.802063 
	C586.067993,780.546936 585.728210,778.514526 585.594788,776.611755 
	C584.403625,759.620178 586.340515,742.633362 585.594666,725.653625 
	C585.402161,721.270508 586.566833,719.408875 591.369812,719.576050 
	C605.525513,720.068787 603.236633,717.735291 603.308594,731.414978 
	C603.444458,757.246643 603.244568,783.080139 603.438049,808.911011 
	C603.472412,813.502197 601.985840,814.734497 597.500122,815.044495 
	C589.994629,815.563110 585.057373,813.405151 580.568542,806.786438 
	C568.420044,788.873779 555.312683,771.611145 542.559143,754.109924 
	C541.818481,753.093567 541.359619,751.725159 539.651855,751.316284 
	C540.743835,770.517883 540.219238,789.617798 540.305542,808.712769 
	C540.333252,814.843689 539.923523,815.342041 533.698608,814.680908 
	C529.903320,814.277832 526.024963,815.377686 522.335693,814.005188 
	C521.313293,812.426636 521.669495,810.713867 521.671265,809.082947 
	C521.701721,781.084412 521.806396,753.085876 521.761536,725.087463 
	C521.755798,721.492859 522.410889,719.144592 527.114502,719.651978 
z"/>
<path fill="#000000" opacity="1.000000" stroke="none" 
	d="
M502.293030,779.895386 
	C493.906647,813.322815 454.382751,825.648499 426.782104,809.378296 
	C408.969543,798.878052 401.968323,782.147949 404.064301,762.250549 
	C406.373749,740.327087 419.175018,725.975586 440.298035,719.874634 
	C468.862793,711.624268 496.971710,728.752869 502.784210,757.679626 
	C504.226990,764.859863 504.081299,772.244080 502.293030,779.895386 
M471.476715,740.975464 
	C464.734161,736.908936 457.634735,734.890442 449.609497,736.065735 
	C436.725464,737.952576 426.435638,746.682312 423.376526,758.863037 
	C420.143402,771.736511 424.602600,785.555725 434.219513,792.465759 
	C445.133362,800.307800 459.930908,800.662659 470.888489,793.844604 
	C487.989655,783.203796 491.840729,755.590332 471.476715,740.975464 
z"/>
<path fill="#000000" opacity="1.000000" stroke="none" 
	d="
M337.010071,794.074707 
	C336.847839,800.216064 336.613708,805.871155 336.568695,811.527832 
	C336.549744,813.916809 335.426453,814.830627 333.241791,814.838379 
	C328.606110,814.854797 323.946472,815.244873 319.467987,814.153748 
	C318.281342,812.517151 318.676666,810.794067 318.675140,809.175354 
	C318.649048,781.364319 318.763794,753.552490 318.560669,725.742981 
	C318.525513,720.923889 319.960754,719.297974 324.773102,719.565186 
	C337.877747,720.292725 351.075623,718.406372 364.127167,720.711853 
	C378.025482,723.166870 386.239838,730.969177 388.953094,743.967041 
	C391.752441,757.377380 386.616028,769.657898 375.082947,777.164612 
	C373.982635,777.880798 372.930054,778.670227 371.324982,779.798401 
	C378.736603,791.081665 386.059113,802.229248 393.992706,814.307068 
	C386.721558,814.307068 380.638214,814.341125 374.555603,814.288879 
	C372.378967,814.270203 371.544647,812.479187 370.583710,810.917847 
	C365.785400,803.121704 360.814941,795.424988 356.249054,787.495178 
	C353.978241,783.551208 351.188171,781.726990 346.593719,782.281616 
	C343.667938,782.634827 340.664856,782.347656 337.542572,782.347656 
	C336.440918,786.360291 337.382507,790.016541 337.010071,794.074707 
M358.276123,737.149414 
	C352.367096,735.632935 346.352173,736.641724 340.389435,736.408203 
	C338.090973,736.318298 337.071075,737.564087 337.072449,739.790161 
	C337.077789,748.406555 337.074646,757.022949 337.074646,765.876038 
	C343.606842,765.876038 349.899017,766.166382 356.153473,765.804688 
	C364.541168,765.319519 369.813629,760.507324 370.601654,753.315735 
	C371.512238,745.005981 367.947754,740.049866 358.276123,737.149414 
z"/>
<path fill="#000000" opacity="1.000000" stroke="none" 
	d="
M246.986267,774.856384 
	C238.313751,774.534668 238.310593,774.534668 238.308517,782.767029 
	C238.306259,791.764038 238.186981,800.763611 238.373474,809.756775 
	C238.446960,813.300720 237.358643,814.802856 233.643234,815.002991 
	C219.645706,815.757202 219.652512,815.856995 219.652573,801.891296 
	C219.652695,776.566345 219.793747,751.239929 219.531891,725.917664 
	C219.478241,720.730103 221.165619,719.437500 226.083633,719.533813 
	C238.325150,719.773438 238.332291,719.558350 238.339951,731.562988 
	C238.344513,738.727295 238.469009,745.895020 238.279572,753.054321 
	C238.189743,756.448669 239.234146,757.839233 242.804230,757.779785 
	C252.964691,757.610718 263.131439,757.616821 273.292206,757.778259 
	C276.872284,757.835083 277.885773,756.342102 277.847748,753.007385 
	C277.741455,743.678894 278.033875,734.343811 277.819275,725.019409 
	C277.722534,720.814758 279.299316,719.604553 283.345337,719.588623 
	C296.326813,719.537415 296.327179,719.404419 296.329285,732.375793 
	C296.333344,757.700745 296.210052,783.026855 296.448547,808.349609 
	C296.495056,813.291077 295.214020,815.088196 290.088348,815.036560 
	C274.889923,814.883606 277.949646,815.502991 277.688263,802.873962 
	C277.522827,794.879944 277.563721,786.878723 277.679504,778.883179 
	C277.724945,775.746643 276.683197,774.013123 273.369446,774.459351 
	C264.731934,775.622498 256.058075,773.877625 246.986267,774.856384 
z"/>
<path fill="#000000" opacity="1.000000" stroke="none" 
	d="
M659.019775,736.363037 
	C645.349548,736.372192 645.313293,736.372314 645.361145,749.452209 
	C645.398621,759.693970 644.201538,758.597534 654.316589,758.643494 
	C662.810120,758.682068 671.306580,758.779785 679.796448,758.600098 
	C683.490356,758.521973 685.293579,759.518433 685.270996,763.590759 
	C685.197754,776.812988 686.770813,774.812683 674.436096,774.935913 
	C666.110291,775.019104 657.779785,775.025024 649.457214,774.823608 
	C646.456909,774.751038 645.198547,775.598816 645.309937,778.724365 
	C645.481873,783.547974 645.523560,788.390137 645.298279,793.209412 
	C645.127380,796.865723 646.795654,797.726440 650.088806,797.693848 
	C662.078674,797.575256 674.071533,797.738342 686.061096,797.604736 
	C689.689880,797.564270 691.265625,798.416382 691.504639,802.551941 
	C692.219360,814.920837 692.449829,814.958740 679.840515,814.891724 
	C663.691162,814.805969 647.541870,814.524658 631.393250,814.567932 
	C627.791199,814.577576 626.868896,813.331848 626.885010,809.932129 
	C627.018311,781.786926 627.073547,753.640869 626.967102,725.495728 
	C626.950012,720.978210 628.412048,719.476074 633.024597,719.542847 
	C650.174988,719.791138 667.331970,719.740540 684.484314,719.578552 
	C688.626099,719.539368 689.924805,720.724792 689.591614,725.036194 
	C688.717896,736.340088 688.927124,736.355042 677.502808,736.354797 
	C671.507141,736.354736 665.511536,736.359924 659.019775,736.363037 
z"/>
<path fill="#000000" opacity="1.000000" stroke="none" 
	d="
M709.376770,800.458313 
	C707.104675,796.699097 705.670837,793.017944 705.002502,788.532593 
	C709.523926,786.170471 714.535950,785.154785 719.424500,783.846191 
	C721.232971,783.362000 722.100464,784.553711 722.550049,786.221436 
	C726.264404,800.001953 741.879822,801.577637 751.731628,798.572632 
	C756.381836,797.154297 759.319580,794.057922 759.736633,788.865601 
	C760.166138,783.519165 757.330261,780.426086 752.920227,778.383362 
	C747.771057,775.998230 742.235657,774.780334 736.792358,773.279114 
	C730.191650,771.458679 723.808533,769.141846 718.370789,764.746338 
	C706.586548,755.220703 706.060242,736.570496 717.333862,726.478577 
	C729.917419,715.214233 754.559875,715.071472 767.290161,726.189087 
	C772.587952,730.815796 774.670288,734.663391 775.905457,742.463623 
	C771.369934,745.055237 766.029785,745.557495 761.001892,746.943359 
	C759.248718,747.426636 758.857910,745.804932 758.401855,744.555725 
	C754.400513,733.594116 744.907898,732.789917 735.207703,734.817871 
	C730.975525,735.702698 728.340088,738.922852 727.545898,743.186768 
	C726.804077,747.169922 728.708435,750.279846 731.673096,752.790039 
	C734.823547,755.457520 738.723694,756.426575 742.566895,757.510071 
	C747.519714,758.906372 752.530701,760.123657 757.418152,761.719666 
	C772.438782,766.624634 779.646606,776.861572 778.282959,791.070312 
	C777.134399,803.038513 766.373413,813.158569 752.525146,815.213867 
	C743.358459,816.574280 734.278625,816.313416 725.485840,813.088074 
	C718.911255,810.676453 713.474915,806.690002 709.376770,800.458313 
z"/>
<path fill="#000000" opacity="1.000000" stroke="none" 
	d="
M876.635742,759.145691 
	C882.869995,760.692871 888.553284,762.560913 893.760376,765.637451 
	C910.176208,775.336548 911.075806,798.290405 895.486084,809.175598 
	C881.716492,818.789917 857.931091,818.308472 844.561584,808.174500 
	C839.029602,803.981384 835.677734,798.387085 833.692688,791.830566 
	C832.917358,789.269653 833.549927,787.705322 836.235229,787.047485 
	C837.847595,786.652527 839.426147,786.117249 841.015015,785.629211 
	C848.533630,783.319702 848.533020,783.317749 852.266846,790.223145 
	C857.431458,799.774597 875.040710,803.395447 883.618958,796.669861 
	C889.657227,791.935730 889.217102,783.546387 882.612122,779.601807 
	C876.960999,776.226929 870.501709,775.075012 864.274109,773.304443 
	C856.024658,770.959045 848.030090,768.104248 842.546326,760.947815 
	C833.337097,748.929688 836.329834,731.980408 849.036804,723.803955 
	C861.711121,715.648376 881.238037,716.105469 893.486755,724.844360 
	C899.658813,729.247864 902.916077,734.762817 903.818481,742.688354 
	C898.746643,744.879822 893.285950,745.949402 887.705078,747.212036 
	C886.990906,745.680420 886.432373,744.500793 885.888916,743.314270 
	C881.803772,734.395691 867.654602,730.781128 859.706421,736.627563 
	C853.694153,741.049927 853.930725,748.871948 860.343933,753.446350 
	C865.076721,756.822205 870.779785,757.630188 876.635742,759.145691 
z"/>
<path fill="#000000" opacity="1.000000" stroke="none" 
	d="
M132.718842,784.000000 
	C132.716187,764.183777 132.829437,744.866272 132.621307,725.552246 
	C132.572815,721.052612 133.836060,719.321838 138.511414,719.571716 
	C151.450027,720.262939 164.491379,718.363770 177.360733,720.696960 
	C194.287949,723.765747 203.827377,737.252686 202.283569,755.467163 
	C200.911896,771.650513 188.531967,783.049927 171.928680,783.350525 
	C166.768127,783.443970 161.595459,783.578735 156.445816,783.331360 
	C152.585281,783.145874 151.057816,784.422241 151.183701,788.423767 
	C151.408722,795.576233 151.071960,802.745422 151.246628,809.900818 
	C151.338181,813.651245 149.695984,815.059448 146.199707,814.863770 
	C129.887680,813.950928 133.025787,817.475647 132.722565,801.984314 
	C132.608536,796.158386 132.712845,790.328247 132.718842,784.000000 
M169.715683,736.575073 
	C164.891113,736.510010 160.065170,736.494446 155.242523,736.360229 
	C152.573227,736.285889 151.242279,737.259644 151.273529,740.113342 
	C151.361023,748.103577 151.308426,756.095276 151.321976,764.086426 
	C151.324585,765.625549 151.366211,767.447632 153.392654,767.444519 
	C160.835083,767.433289 168.445602,768.605408 175.563431,765.485474 
	C181.533051,762.868774 184.459412,756.633057 183.606491,749.231567 
	C182.857208,742.729492 178.712906,738.783997 169.715683,736.575073 
z"/>
<path fill="#000000" opacity="1.000000" stroke="none" 
	d="
M814.474365,814.542358 
	C809.710327,814.735474 805.385071,814.796692 801.059692,814.844055 
	C798.133789,814.876099 796.891663,813.457153 797.016785,810.503296 
	C798.243774,781.533875 797.398682,752.547424 797.657104,723.569519 
	C797.681152,720.869141 798.648499,719.483337 801.452942,719.685913 
	C801.783752,719.709839 802.118896,719.678650 802.451843,719.666809 
	C816.290405,719.174927 816.288391,719.174866 816.292786,732.986877 
	C816.300781,758.140442 816.335815,783.294006 816.274597,808.447388 
	C816.269653,810.460510 817.217224,812.852478 814.474365,814.542358 
z"/>
<path fill="#000000" opacity="1.000000" stroke="none" 
	d="
M388.041168,423.616394 
	C386.132416,418.687836 385.567841,413.983276 385.578094,409.081329 
	C385.666534,366.760498 385.580994,324.439331 385.668335,282.118530 
	C385.708649,262.584198 403.696533,244.713669 423.284332,244.690613 
	C472.436707,244.632751 521.589172,244.641891 570.741638,244.685806 
	C590.115723,244.703110 607.537292,261.074005 608.312927,280.369110 
	C609.859131,318.834656 608.587158,357.325470 608.958374,395.803650 
	C609.014465,401.614777 609.276306,407.419495 608.507324,413.257080 
	C605.857300,433.374542 588.048157,449.299591 567.655090,449.319733 
	C520.668701,449.366119 473.681671,449.482300 426.696259,449.271423 
	C408.636139,449.190369 395.811951,440.354309 388.041168,423.616394 
M468.499939,428.664734 
	C501.164948,428.661621 533.830078,428.709930 566.494934,428.630096 
	C579.511536,428.598267 588.593872,419.575226 588.618347,406.610229 
	C588.693665,366.612457 588.686340,326.614380 588.626343,286.616547 
	C588.606567,273.440460 580.483948,265.366394 567.439087,265.361145 
	C520.608154,265.342285 473.777222,265.345276 426.946289,265.372314 
	C413.913300,265.379822 406.010681,273.124420 405.985718,286.095856 
	C405.908844,326.093414 405.890839,366.091156 405.931854,406.088745 
	C405.946747,420.638000 414.014374,428.615204 428.501923,428.652069 
	C441.501160,428.685150 454.500580,428.662354 468.499939,428.664734 
z"/>
<path fill="#000000" opacity="1.000000" stroke="none" 
	d="
M459.060486,397.470215 
	C457.653229,394.809937 457.643250,392.320160 457.644714,389.807007 
	C457.660034,363.161285 457.635040,336.515503 457.664154,309.869812 
	C457.677948,297.233185 466.947113,291.802094 477.827301,298.283661 
	C499.993347,311.488464 522.079468,324.829620 544.097900,338.279144 
	C554.172668,344.433075 554.042419,355.952057 544.001709,361.976257 
	C522.021606,375.163757 500.024658,388.323486 477.996490,401.430573 
	C470.532867,405.871460 464.530212,404.636292 459.060486,397.470215 
z"/>
</svg>